<svg version="1" xmlns="http://www.w3.org/2000/svg" width="426.667" height="426.667" viewBox="0 0 320.000000 320.000000"><path d="M84.2 59.3c-2.6 1.7-8.7 5.7-13.6 9-4.9 3.2-9.4 5.6-10.2 5.3-.7-.3-5.7-3.8-10.9-7.7l-9.6-7.3-9.9 4.9C19.3 68.7 19.8 68.2 18.4 78c-.3 2.4-.7 4.7-.9 5-.1.3-.6 3.1-.9 6.2-.5 4-.3 5.8.4 5.8.6 0 .8.4.5 1-.3.5-2 1-3.7 1h-3.1l.7 6.2c1.5 14.7 1.5 14.7 10.7 16.2 3.4.6 3.7 1 10.4 15.2 3.7 7.9 7.1 14.7 7.5 14.9.4.3 2.5.7 4.6 1 2.2.3 5 .8 6.4 1.1 7.9 1.5 7.9 1.5 11.1-1.6 1.8-1.6 3.3-3 3.5-3 .2 0 1.6 1.9 3.1 4.2 1.6 2.4 3.1 4.7 3.6 5.3.4.5 2.1 2.9 3.7 5.2 2.9 4.2 3 4.2 8.8 4.1l5.8-.2 11.9-25.8c6.6-14.2 12.2-25.8 12.6-25.8.4 0 5.8 1.5 12 3.4 12.4 3.8 20 5.9 21.1 6 2.7.3 2.4.9-7.7 19.1-1.6 2.7-4 7.2-5.5 10-3.3 6-7.3 13.4-13.3 23.8l-4.4 7.9 1.5 4.6c.8 2.6 2.2 7.2 3.1 10.2l1.8 5.5 11.9 4.3c6.5 2.4 13.3 4.9 14.9 5.6 1.7.7 11.3 4.4 21.5 8.1 10.2 3.8 18.8 7.3 19.2 7.9.4.6.6 1.8.3 2.6-.2.8-.6 3.7-1 6.5-1.1 9.4-1.5 13-2 18l-.5 5 2.1-2.5c1.1-1.4 2.8-3.4 3.7-4.5.9-1.1 5.3-6.3 9.6-11.5 4.4-5.2 8.6-10 9.4-10.7 1.9-1.6 1.1-2.6-5.8-7.3-3.2-2.1-6.4-4.5-7.1-5.2-.8-.7-8.6-6.9-17.4-13.7-8.8-6.8-16.5-13-17.1-13.8-.7-.8-4.1-2.9-7.7-4.7l-6.6-3.3 20.2-14.1c19.9-13.9 20.3-14.3 23.6-20.7l3.3-6.5 3.5 5.8c2 3.1 4.4 7 5.4 8.7 1 1.6 2.2 3.7 2.6 4.5.4.8 2.6 4.5 5 8.2 4.6 7.3 4.7 7.3 15.4 8.3l6.6.6 20.8-23.8c11.5-13.1 22.3-25.3 24.2-27.2l3.3-3.4 1.9 2.4c1 1.3 2.8 3.4 3.8 4.6 1.5 1.6 2 3.9 2.2 8.5.1 3.5.4 7.2.6 8.3.2 1.1.4 3.2.4 4.8.1 2.6.5 2.2 6.3-4.5 3.4-4 6.8-8.1 7.6-9 1.3-1.6.4-3.5-9.4-19.8-6-9.9-11.2-18-11.5-18-.4 0-3.1 3.6-6 8s-5.9 8-6.8 8.1c-.9 0-2.4.2-3.3.4-.9.2-3.6.6-6 .9-2.4.3-8 1.1-12.6 1.8-4.5.6-8.9 1.6-9.6 2.2-.8.6-2.6 5.8-4.1 11.5-1.4 5.7-3.2 11.8-4 13.5l-1.4 3.1.4-3c.3-1.7.8-7.4 1.1-12.7l.6-9.7-8.8-13.7c-8.2-12.8-9.4-14.1-18.1-20.6l-9.3-7-14-.1h-14.1L156 74.4 141.1 63l-7.8-1c-4.3-.6-9.1-1.2-10.8-1.5-1.6-.2-5.7-.7-9-1-3.3-.4-10.2-1.3-15.3-1.9l-9.3-1.3-4.7 3zm-54.3 45.1c1.5 1.8-.1 3-3 2.1-1.6-.5-1.8-1-.8-2.1 1.5-1.8 2.3-1.8 3.8 0zm18 16.5c2 2.8 1.8 8.1-.3 8.1-.6 0-3.8-2.6-7.1-5.7-5.3-4.9-5.8-5.7-4-6.3 3.1-1.1 9.4 1 11.4 3.9z"/></svg>